<?xml version="1.0" encoding="utf-8"?>
<!-- Generator: Adobe Illustrator 16.0.0, SVG Export Plug-In . SVG Version: 6.00 Build 0)  -->
<!DOCTYPE svg PUBLIC "-//W3C//DTD SVG 1.1//EN" "http://www.w3.org/Graphics/SVG/1.1/DTD/svg11.dtd">
<svg version="1.1" id="Layer_1" xmlns="http://www.w3.org/2000/svg" xmlns:xlink="http://www.w3.org/1999/xlink" x="0px" y="0px"
	 width="285.417px" height="263.542px" viewBox="0 0 285.417 263.542" enable-background="new 0 0 285.417 263.542"
	 xml:space="preserve">
<g>
	<path fill="#FFF27D" d="M104.392,49.343c-4.115-18.595,7.617-37.008,26.216-41.123c18.597-4.12,37.007,7.617,41.127,26.211
		c1.044,4.731,1.085,9.625,0.114,14.367"/>
	<g opacity="0.2" enable-background="new    ">
		<path fill="#9E0000" d="M104.046,36.423c-0.726,4.289-0.608,8.677,0.348,12.918l67.452-0.538
			c0.852-4.083,0.929-8.292,0.229-12.408C149.896,29.687,126.223,29.696,104.046,36.423"/>
	</g>
	<path fill="#DB9CAB" d="M255.25,101.686h-1.666c-11.82,0.041-22.971-5.502-30.066-14.962c-0.7-0.938-1.419-1.865-2.151-2.781
		c11.938-6.919,26.229-33.351,22.559-41.526c-2.39-5.335-38.475-2.818-51.673,16.218c-0.146,0.202-0.219,0.389-0.348,0.586
		c-16.479-9.112-35.01-13.856-53.842-13.786c-56.953,0-103.125,41.973-103.125,93.75c0.027,17.226,5.175,34.058,14.779,48.349
		c6.615,9.893,8.659,22.156,5.608,33.664l-3.534,12.113c-5.134,18.764,51.153,31.265,55.804,15.408l2.044-6.808
		c1.696-6.427,7.864-10.624,14.465-9.837c8.677,1.076,17.448,1.145,26.136,0.201c6.674-0.833,12.945,3.342,14.749,9.819l2.357,6.962
		c5.205,16.302,61.734,2.239,55.673-15.911l-3.323-10.3c-3.154-11.54-1.085-23.873,5.658-33.746l0.078-0.115
		c5.09-7.604,13.6-12.199,22.746-12.3h7.072c12.945,0,23.438-16.79,23.438-37.5C278.688,118.477,268.195,101.686,255.25,101.686"/>
	<g opacity="0.2" enable-background="new    ">
		<g>
			<defs>
				<rect id="SVGID_1_" x="51.46" y="227.535" width="60.551" height="28.418"/>
			</defs>
			<clipPath id="SVGID_2_">
				<use xlink:href="#SVGID_1_"  overflow="visible"/>
			</clipPath>
			<path clip-path="url(#SVGID_2_)" fill="#750000" d="M111.274,236.552c-7.617,10.712-48.727,3.969-57.802-9.018l-1.683,5.777
				c-5.134,18.768,51.155,31.265,55.799,15.408l2.049-6.808c0.469-1.716,1.275-3.323,2.374-4.729
				C111.762,236.974,111.515,236.772,111.274,236.552"/>
		</g>
	</g>
	<g opacity="0.2" enable-background="new    ">
		<g>
			<defs>
				<rect id="SVGID_3_" x="163.074" y="227.759" width="60.398" height="28.486"/>
			</defs>
			<clipPath id="SVGID_4_">
				<use xlink:href="#SVGID_3_"  overflow="visible"/>
			</clipPath>
			<path clip-path="url(#SVGID_4_)" fill="#750000" d="M223.014,233.147l-1.738-5.384c-9.165,12.488-48.784,19.821-57.326,9.559
				c-0.289,0.238-0.582,0.462-0.875,0.695c0.865,1.236,1.521,2.619,1.914,4.079l2.361,6.962
				C172.546,265.36,229.075,251.297,223.014,233.147"/>
		</g>
	</g>
	<g opacity="0.5" enable-background="new    ">
		<g>
			<defs>
				<rect id="SVGID_5_" x="222.73" y="92.037" width="55.957" height="54.181"/>
			</defs>
			<clipPath id="SVGID_6_">
				<use xlink:href="#SVGID_5_"  overflow="visible"/>
			</clipPath>
			<path clip-path="url(#SVGID_6_)" fill="#FFFFFF" d="M223.385,100.613l0.124,0.169c7.104,9.46,18.251,15.008,30.075,14.967h1.666
				c11.436,0,20.957,13.12,23.012,30.469c0.279-2.335,0.421-4.683,0.426-7.031c0-20.709-10.492-37.5-23.438-37.5h-1.666
				c-9.288,0-18.251-3.436-25.15-9.652c-1.391,1.529-2.901,2.939-4.513,4.223C222.574,97.317,222.337,99.262,223.385,100.613"/>
		</g>
	</g>
	<g opacity="0.5" enable-background="new    ">
		<g>
			<defs>
				<rect id="SVGID_7_" x="34.938" y="39.968" width="209.449" height="106.332"/>
			</defs>
			<clipPath id="SVGID_8_">
				<use xlink:href="#SVGID_7_"  overflow="visible"/>
			</clipPath>
			<path clip-path="url(#SVGID_8_)" fill="#FFFFFF" d="M138.063,59.499c17.592,0,34.982,3.77,50.995,11.062
				c3.255,1.529,7.095,1.037,9.851-1.27c14.246-11.822,29.865-18.29,43.446-14.063c1.978-3.96,2.536-8.489,1.57-12.811
				c-2.39-5.335-38.475-2.818-51.673,16.218c-0.146,0.202-0.219,0.389-0.348,0.586c-16.479-9.112-35.01-13.856-53.842-13.786
				c-56.953,0-103.125,41.973-103.125,93.75c0,2.395,0.117,4.771,0.309,7.114C39.165,97.772,83.683,59.499,138.063,59.499"/>
		</g>
	</g>
	<g opacity="0.2" enable-background="new    ">
		<g>
			<defs>
				<rect id="SVGID_9_" x="34.938" y="129.358" width="200.748" height="103.011"/>
			</defs>
			<clipPath id="SVGID_10_">
				<use xlink:href="#SVGID_9_"  overflow="visible"/>
			</clipPath>
			<path clip-path="url(#SVGID_10_)" fill="#C80000" d="M142.592,213.619c-55.776,0-101.644-36.941-107.109-84.261
				c-0.346,3.076-0.529,6.166-0.543,9.261c0,51.773,46.166,93.75,103.125,93.75c45.326,0,83.797-26.596,97.621-63.552
				c-0.838,0.646-1.795,1.214-2.664,1.827C211.305,198.384,177.811,214.296,142.592,213.619"/>
		</g>
	</g>
	<g opacity="0.2" enable-background="new    ">
		<g>
			<defs>
				<rect id="SVGID_11_" x="235.182" y="132.155" width="43.506" height="47.937"/>
			</defs>
			<clipPath id="SVGID_12_">
				<use xlink:href="#SVGID_11_"  overflow="visible"/>
			</clipPath>
			<path clip-path="url(#SVGID_12_)" fill="#E60000" d="M278.262,132.155c-2.055,17.35-11.572,30.469-23.012,30.469h-7.072
				c-4.106,0.014-8.157,0.984-11.824,2.829c-0.375,1.09-0.596,2.221-0.668,3.359c0,3.777-0.156,7.554-0.504,11.279
				c3.974-2.229,8.441-3.396,12.996-3.405h7.072c12.945,0,23.438-16.79,23.438-37.5C278.683,136.837,278.541,134.49,278.262,132.155
				"/>
		</g>
	</g>
	<path fill="#4A4A93" d="M255.25,97.001h-1.662c-9.915,0.014-19.309-4.44-25.57-12.122c12.104-10.444,24.66-34.417,20.191-44.383
		c-1.309-2.906-4.559-4.562-9.941-5.058c-12.699-1.163-35.733,3.761-47.723,17.748c-4.448-2.247-9.028-4.187-13.703-5.836
		c0.652-4.632,0.477-9.351-0.537-13.93c-4.679-21.122-25.594-34.454-46.715-29.775C109.474,8.1,96.437,27.279,99.28,47.344
		c-35.644,12.59-62.188,41.999-67.886,77.513c-11.262-1.708-19.894-11.434-19.894-23.17c0-12.943,10.494-23.438,23.438-23.438
		c2.586,0,4.688-2.101,4.688-4.688c0-2.589-2.101-4.688-4.688-4.688c-18.123,0-32.813,14.689-32.813,32.813
		c0,16.578,12.294,30.275,28.262,32.491c-0.092,1.659-0.139,3.329-0.139,5.009c0.045,18.059,5.413,35.697,15.424,50.725
		c0.041,0.067,0.065,0.14,0.11,0.206c0.081,0.121,0.168,0.237,0.25,0.358c5.671,8.685,7.422,19.366,4.79,29.405l-3.554,12.195
		c-2.925,10.693,6.788,20.608,25.342,25.863c16.527,4.679,35.93,4.203,39.473-7.873l2.081-6.939
		c1.103-4.162,5.086-6.885,9.366-6.396c8.923,1.108,17.938,1.185,26.879,0.237c0.108-0.004,0.218-0.006,0.326-0.018
		c0.114-0.012,0.228-0.028,0.342-0.041c4.359-0.393,8.383,2.426,9.473,6.692l2.325,6.88c2.015,5.352,6.89,9.105,12.58,9.673
		c2.746,0.559,5.548,0.829,8.34,0.806c14.539,0,32.373-6.23,40.018-14.79c3.809-3.763,5.229-9.334,3.672-14.461l-3.26-10.08
		c-2.721-9.908-1.068-20.481,4.488-29.084c0.165-0.257,0.344-0.504,0.506-0.763c0.024-0.035,0.037-0.074,0.061-0.109
		c0.006-0.009,0.012-0.019,0.018-0.027c4.225-6.317,11.288-10.158,18.887-10.272h7.068c15.77,0,28.125-18.53,28.125-42.188
		S271.02,97.001,255.25,97.001z M108.871,35.908c3.3-16.12,19.045-26.516,35.165-23.215c15.013,3.072,25.059,16.944,23.7,31.858
		c-9.652-2.534-19.625-3.826-29.676-3.799c-10.285,0-20.235,1.329-29.663,3.796C108.139,41.667,108.288,38.755,108.871,35.908z
		 M255.25,171.999h-7.068c-3.094,0.036-6.12,0.523-9.011,1.394c1.506-3.719,2.786-7.53,3.802-11.423
		c0.65-2.504-0.852-5.063-3.359-5.713c-2.504-0.655-5.063,0.852-5.713,3.36c-2.225,8.519-5.787,16.63-10.538,24.046
		c-0.15,0.236-0.274,0.487-0.378,0.746c-0.518,0.656-1.021,1.327-1.49,2.028c-0.266,0.389-0.509,0.788-0.762,1.183
		c-4.826,7.426-11.03,13.867-18.304,18.949c-1.241,0.879-1.978,2.308-1.978,3.827c0.004,2.591,2.102,4.683,4.691,4.683
		c0.971,0,1.919-0.298,2.706-0.865c2.002-1.396,3.926-2.892,5.781-4.464c-0.25,4.846,0.271,9.751,1.603,14.53l3.332,10.351
		c0.225,0.668,0.815,2.435-1.748,5.291c-6.963,7.796-27.585,13.578-39.409,11.064c-1.817-0.389-4.958-1.337-5.621-3.434l-2.275-6.67
		c-0.673-2.481-1.843-4.724-3.383-6.632c2.051-0.503,4.09-1.056,6.111-1.671c0.009,0,0.009-0.01,0.009-0.01
		c2.481-0.75,3.873-3.373,3.113-5.85c-0.751-2.473-3.369-3.873-5.851-3.113c-6.279,1.908-12.724,3.23-19.248,3.962
		c-0.178,0.015-0.355,0.024-0.532,0.044c-7.043,0.763-14.141,0.826-21.193,0.21c-0.287-0.09-0.585-0.157-0.896-0.192
		c-7.888-0.929-15.642-2.814-23.076-5.607c-2.433-0.896-5.129,0.344-6.024,2.774c-0.895,2.426,0.353,5.127,2.781,6.024
		c2.544,0.953,5.124,1.797,7.729,2.554c-1.788,2.012-3.15,4.443-3.906,7.187l-2.053,6.84c-1.158,3.937-13.87,5.502-27.928,1.52
		c-12.254-3.47-20.181-9.513-18.872-14.296l3.557-12.218c1.229-4.635,1.706-9.381,1.478-14.074c1.838,1.701,3.736,3.341,5.7,4.905
		c0.837,0.69,1.888,1.066,2.971,1.066c1.401,0,2.733-0.632,3.624-1.712c1.646-2.005,1.354-4.953-0.641-6.602
		c-7.387-5.881-13.832-12.851-19.119-20.67c-0.082-0.124-0.155-0.253-0.237-0.377c-9.084-13.532-13.955-29.458-14-45.759
		c0-49.109,44.16-89.06,98.438-89.06c18.033-0.062,35.771,4.481,51.564,13.195c2.179,1.213,4.939,0.501,6.262-1.627l0.211-0.39
		c10.346-14.916,37.742-18.154,43.776-16.156c0.947,6.406-10.327,28.64-20.856,34.739c-0.196,0.117-0.394,0.248-0.572,0.394
		c-2.023,1.616-2.357,4.564-0.741,6.589c0.7,0.877,1.392,1.763,2.051,2.653c8.002,10.627,20.535,16.866,33.833,16.853h1.662
		c10.162,0,18.75,15.024,18.75,32.81C274,156.975,265.412,171.999,255.25,171.999z"/>
	<path fill="#555599" d="M184.938,129.811c-2.586,0-4.688-2.097-4.688-4.688c0-5.175-4.202-9.375-9.375-9.375
		s-9.375,4.2-9.375,9.375c0,2.586-2.102,4.688-4.688,4.688s-4.688-2.101-4.688-4.688c0-10.354,8.396-18.75,18.75-18.75
		s18.75,8.396,18.75,18.75C189.625,127.71,187.528,129.811,184.938,129.811z"/>
</g>
</svg>
